<svg width="71" height="65" viewBox="0 0 71 65" fill="none" xmlns="http://www.w3.org/2000/svg">
<path d="M70.4004 13.8758L55.803 0.485838C55.0035 -0.247558 53.7067 -0.247558 52.9066 0.485838C52.1065 1.21973 52.1065 2.40926 52.9066 3.14266L55.1075 5.16199L42.7987 16.4526L35.7319 9.9703C34.9323 9.23691 33.6355 9.23691 32.8355 9.9703C32.0354 10.7042 32.0354 11.8937 32.8355 12.6271L36.253 15.762L16.2387 34.1212C15.0779 35.1855 14.4387 36.6011 14.4387 38.1062C14.4387 38.7377 14.5524 39.3524 14.7686 39.9327L10.4372 43.9053C8.57437 45.6146 8.57437 48.3956 10.4372 50.1049L11.9242 51.4683L0.599648 61.8561C-0.199883 62.5895 -0.199883 63.779 0.599648 64.5129C0.999955 64.8796 1.52377 65.063 2.04812 65.063C2.57193 65.063 3.09629 64.8796 3.49605 64.5124L14.8206 54.1251L16.307 55.4886C17.2387 56.3432 18.4623 56.7705 19.686 56.7705C20.9102 56.7705 22.1339 56.3432 23.0656 55.4886L27.3964 51.516C28.0291 51.7138 28.6991 51.8181 29.3876 51.8181C31.0284 51.8181 32.5717 51.2318 33.732 50.1675L53.7462 31.8087L57.1637 34.9435C57.564 35.3102 58.0879 35.4941 58.6122 35.4941C59.136 35.4941 59.6604 35.3107 60.0601 34.9435C60.8602 34.2097 60.8602 33.0206 60.0601 32.2867L52.9933 25.8044L65.3026 14.5138L67.5035 16.5326C67.9032 16.8993 68.4276 17.0832 68.9514 17.0832C69.4757 17.0832 70.0001 16.8998 70.3999 16.5326C71.1999 15.7987 71.1999 14.6097 70.4004 13.8758V13.8758ZM20.1692 52.8318C19.9953 52.9913 19.7922 53.0151 19.6865 53.0151C19.5809 53.0151 19.3778 52.9913 19.2039 52.8318L13.3342 47.4481C13.0677 47.2036 13.0677 46.8066 13.3342 46.5621L17.223 42.995L24.058 49.2647L20.1692 52.8318ZM30.8356 47.5107C30.0371 48.2431 28.7387 48.2436 27.9397 47.5112L19.1351 39.4349C18.7478 39.0801 18.5349 38.608 18.5349 38.1062C18.5349 37.6043 18.7478 37.1328 19.1351 36.778L24.552 31.8087L27.9695 34.9435C28.3693 35.3102 28.8936 35.4941 29.418 35.4941C29.9418 35.4941 30.4661 35.3102 30.8659 34.9435C31.6654 34.2102 31.6654 33.0206 30.8659 32.2867L27.4484 29.1519L31.8507 25.1137L35.2682 28.2486C35.6679 28.6153 36.1923 28.7991 36.7161 28.7991C37.2405 28.7991 37.7648 28.6158 38.1646 28.2486C38.9641 27.5152 38.9641 26.3256 38.1646 25.5917L34.7471 22.4569L39.1488 18.4188L50.8498 29.1519L30.8356 47.5107ZM50.0974 23.1476L45.6951 19.1094L58.0039 7.81881L62.4062 11.857L50.0974 23.1476Z" fill="#199A8E"/>
</svg>
