<svg width="61" height="57" viewBox="0 0 61 57" fill="none" xmlns="http://www.w3.org/2000/svg">
<path d="M58.8757 24.0856C57.5257 23.0167 55.7984 22.645 54.1369 23.0666L52.0736 23.5896C51.7155 21.9554 51.1815 20.3825 50.4858 18.8924L54.1875 16.7254C55.0423 16.225 55.3351 15.1169 54.8416 14.2501C54.3481 13.3834 53.2554 13.0861 52.4004 13.5869L48.6966 15.7551C47.7716 14.4023 46.6949 13.1477 45.4775 12.0143L46.959 10.4608C48.1496 9.21214 48.696 7.50963 48.4582 5.78984C48.2204 4.06982 47.2332 2.58548 45.75 1.71725C44.2667 0.848779 42.5053 0.724229 40.9174 1.37537C39.3295 2.02651 38.1488 3.35743 37.6777 5.0272L37.0971 7.08512C35.532 6.58764 33.9239 6.27174 32.287 6.13861V1.81208C32.287 0.811329 31.4868 0 30.4999 0C29.5129 0 28.7128 0.811329 28.7128 1.81208V6.13861C27.0759 6.27174 25.4679 6.58776 23.9027 7.08512L23.322 5.0272C22.8509 3.35755 21.6701 2.02639 20.0823 1.37537C18.4947 0.724229 16.7332 0.849021 15.2498 1.71725C13.7665 2.5856 12.7794 4.06994 12.5416 5.78972C12.3038 7.50951 12.8502 9.21202 14.0407 10.4607L15.5222 12.0142C14.3049 13.1477 13.2282 14.4022 12.3032 15.755L8.59945 13.5867C7.74462 13.0861 6.65162 13.3833 6.15826 14.25C5.66478 15.1168 5.95763 16.225 6.81234 16.7253L10.514 18.8923C9.81826 20.3824 9.28439 21.9553 8.92625 23.5894L6.86286 23.0665C5.20096 22.6449 3.47402 23.0167 2.12404 24.0855C0.774295 25.1545 0 26.7634 0 28.5001C0 30.2368 0.774295 31.8456 2.12428 32.9145C3.47426 33.9834 5.20168 34.3549 6.8631 33.9335L8.92637 33.4106C9.28451 35.0447 9.8185 36.6176 10.5143 38.1077L6.81246 40.2747C5.95775 40.7751 5.6649 41.8833 6.15838 42.75C6.48935 43.3314 7.09006 43.6564 7.70768 43.6564C8.01078 43.6564 8.31816 43.5782 8.59957 43.4133L12.3033 41.245C13.2282 42.5978 14.3049 43.8524 15.5222 44.9858L14.0406 46.5393C12.85 47.788 12.3037 49.4905 12.5416 51.2103C12.7795 52.9301 13.7666 54.4144 15.2499 55.2828C16.1052 55.7836 17.053 56.0369 18.0067 56.0369C18.7067 56.0368 19.4103 55.9002 20.0825 55.6246C21.6703 54.9735 22.8511 53.6426 23.3221 51.9728L23.9028 49.9149C25.4679 50.4124 27.076 50.7283 28.7129 50.8614V55.1879C28.7129 56.1887 29.513 57 30.5 57C31.487 57 32.2871 56.1887 32.2871 55.1879V50.8614C33.924 50.7283 35.532 50.4122 37.0972 49.9149L37.6779 51.9728C38.1489 53.6425 39.3296 54.9736 40.9174 55.6246C42.5054 56.2757 44.2667 56.151 45.7501 55.2828C47.2334 54.4144 48.2205 52.9301 48.4583 51.2103C48.6961 49.4905 48.1497 47.788 46.9592 46.5393L45.4775 44.9858C46.6949 43.8523 47.7716 42.5977 48.6965 41.245L52.4002 43.4133C52.6816 43.578 52.9889 43.6564 53.2921 43.6564C53.9097 43.6564 54.5105 43.3314 54.8414 42.75C55.3349 41.8833 55.042 40.775 54.1873 40.2747L50.4855 38.1077C51.1813 36.6176 51.7151 35.0447 52.0734 33.4106L54.1368 33.9335C55.7984 34.3549 57.5255 33.9832 58.8756 32.9145C60.2257 31.8456 61 30.2368 61 28.5001C61 26.7634 60.2257 25.1545 58.8757 24.0856ZM56.6761 30.058C56.1998 30.4351 55.5902 30.5663 55.0038 30.4177L51.0806 29.4233C50.586 29.2977 50.0621 29.3927 49.6408 29.6837C49.2195 29.9749 48.9408 30.4346 48.8751 30.9473C48.2372 35.9168 45.7152 40.3436 41.7736 43.4125C41.3696 43.7271 41.1172 44.2014 41.0797 44.7164C41.0423 45.2315 41.2233 45.7382 41.5772 46.1094L44.3898 49.0589C44.8099 49.4994 45.0028 50.1003 44.9188 50.7072C44.8348 51.3142 44.4864 51.838 43.9629 52.1445C43.4395 52.4508 42.8178 52.4948 42.2575 52.265C41.6972 52.0354 41.2804 51.5656 41.1142 50.9764L40.0069 47.0513C39.8668 46.5544 39.5241 46.142 39.0651 45.9174C38.606 45.693 38.0744 45.6779 37.6036 45.876C35.3419 46.8279 32.9519 47.3106 30.5001 47.3106C28.0483 47.3106 25.6585 46.8279 23.3966 45.876C22.926 45.6776 22.3941 45.6927 21.9351 45.9174C21.476 46.1419 21.1334 46.5543 20.9933 47.0513L19.886 50.9764C19.7197 51.5656 19.303 52.0354 18.7427 52.265C18.1824 52.4949 17.5607 52.4511 17.0372 52.1445C16.5137 51.838 16.1655 51.3142 16.0815 50.7072C15.9975 50.1004 16.1904 49.4996 16.6105 49.0589L19.4231 46.1094C19.7771 45.7382 19.9581 45.2314 19.9207 44.7164C19.8831 44.2014 19.6307 43.7271 19.2268 43.4125C15.2851 40.3437 12.7632 35.9168 12.1253 30.9473C12.0595 30.4346 11.7809 29.9749 11.3596 29.6837C11.0601 29.4768 10.7088 29.3691 10.3531 29.3691C10.2083 29.3691 10.0627 29.3869 9.91965 29.4233L5.99647 30.4177C5.40994 30.5661 4.80041 30.4354 4.32409 30.058C3.84741 29.6807 3.57422 29.1129 3.57422 28.5001C3.57422 27.8872 3.84741 27.3194 4.32385 26.9422C4.80029 26.565 5.4097 26.4338 5.99623 26.5824L9.91941 27.5769C10.4141 27.7026 10.9381 27.6076 11.3592 27.3164C11.7805 27.0253 12.0592 26.5655 12.1249 26.0528C12.7628 21.0832 15.2849 16.6564 19.2266 13.5876C19.6304 13.273 19.8829 12.7989 19.9204 12.2837C19.958 11.7687 19.777 11.262 19.4229 10.8907L16.6105 7.94139C16.1903 7.50081 15.9974 6.89993 16.0814 6.29288C16.1654 5.68607 16.5136 5.16226 17.0371 4.85578C17.5606 4.54929 18.1821 4.50532 18.7425 4.73521C19.3028 4.96486 19.7196 5.43468 19.8858 6.02384L20.9931 9.94893C21.1332 10.4458 21.4759 10.8582 21.9349 11.0828C22.394 11.3073 22.9256 11.3224 23.3964 11.1243C25.6581 10.1723 28.0481 9.68969 30.4999 9.68969C32.9517 9.68969 35.3415 10.1723 37.6034 11.1243C38.0739 11.3224 38.6057 11.3074 39.0649 11.0828C39.524 10.8584 39.8666 10.4459 40.0067 9.94893L41.114 6.02384C41.2803 5.43468 41.697 4.96486 42.2573 4.73521C42.8177 4.50556 43.4393 4.54941 43.9628 4.85578C44.4863 5.16226 44.8345 5.68607 44.9185 6.29288C45.0025 6.8998 44.8096 7.50069 44.3895 7.94139L41.577 10.8909C41.2229 11.2621 41.0419 11.769 41.0794 12.2839C41.1169 12.799 41.3694 13.2731 41.7733 13.5877C45.715 16.6564 48.2371 21.0833 48.8749 26.0529C48.9407 26.5656 49.2194 27.0254 49.6407 27.3165C50.0621 27.6077 50.586 27.7026 51.0805 27.577L55.0037 26.5825C55.5899 26.434 56.1996 26.5649 56.676 26.9423C57.1526 27.3194 57.4258 27.8872 57.4258 28.5001C57.4258 29.1129 57.1526 29.6807 56.6761 30.058Z" fill="#199A8E"/>
<path d="M33.9785 33.332C33.9785 30.604 36.1663 28.3958 38.8398 28.3958C41.5134 28.3958 43.7012 30.604 43.7012 33.332C43.7012 36.06 41.5134 38.2682 38.8398 38.2682C36.1663 38.2682 33.9785 36.06 33.9785 33.332ZM36.5527 33.332C36.5527 34.6008 37.5718 35.6441 38.8398 35.6441C40.1079 35.6441 41.127 34.6008 41.127 33.332C41.127 32.0632 40.1079 31.0199 38.8398 31.0199C37.5718 31.0199 36.5527 32.0632 36.5527 33.332Z" fill="#199A8E" stroke="#199A8E"/>
<path d="M17.2988 24.876C17.2988 21.4819 20.021 18.7317 23.3516 18.7317C26.6821 18.7317 29.4043 21.4819 29.4043 24.876C29.4043 28.2701 26.6821 31.0203 23.3516 31.0203C20.021 31.0203 17.2988 28.2701 17.2988 24.876ZM19.873 24.876C19.873 26.8109 21.4265 28.3961 23.3516 28.3961C25.2766 28.3961 26.8301 26.8109 26.8301 24.876C26.8301 22.9411 25.2766 21.3559 23.3516 21.3559C21.4265 21.3559 19.873 22.9411 19.873 24.876Z" fill="#199A8E" stroke="#199A8E"/>
</svg>
