<svg width="80" height="84" viewBox="0 0 80 84" fill="none" xmlns="http://www.w3.org/2000/svg">
<path d="M13.8616 56.7125L12.6077 56.3833V57.6797V61.4766C12.6077 61.9817 12.4551 62.2962 12.2805 62.4781C12.1095 62.6562 11.8318 62.7969 11.3978 62.7969H9.84092C9.40698 62.7969 9.12929 62.6562 8.95824 62.4781C8.78368 62.2962 8.6311 61.9817 8.6311 61.4766V45.4453C8.6311 42.9887 9.27635 41.2408 10.3617 40.1094C11.4408 38.9844 13.0939 38.3242 15.4157 38.3242H64.5591C66.8809 38.3242 68.534 38.9844 69.6131 40.1094C70.6985 41.2408 71.3437 42.9887 71.3437 45.4453V61.4766C71.3437 61.9817 71.1911 62.2962 71.0166 62.4781C70.8455 62.6562 70.5678 62.7969 70.1339 62.7969H68.577C68.143 62.7969 67.8653 62.6562 67.6943 62.4781C67.5197 62.2962 67.3671 61.9817 67.3671 61.4766V57.6797V56.3833L66.1133 56.7125C66.1159 56.7118 66.1017 56.7154 66.0644 56.7217C66.0293 56.7275 65.9837 56.734 65.9273 56.7407C65.8141 56.7542 65.6739 56.7668 65.517 56.7776C65.2027 56.7992 64.8489 56.8115 64.5591 56.8115H15.4157C15.1259 56.8115 14.7721 56.7992 14.4578 56.7776C14.3009 56.7668 14.1607 56.7542 14.0476 56.7407C13.9911 56.734 13.9455 56.7275 13.9104 56.7217C13.8731 56.7154 13.859 56.7118 13.8616 56.7125ZM19.4129 29.6514V32.29H14.8337V25.7227C14.8337 23.3776 15.4323 21.7578 16.4206 20.7254C17.402 19.7002 18.9135 19.1025 21.0658 19.1025H58.909C61.0613 19.1025 62.5728 19.7002 63.5542 20.7254C64.5425 21.7578 65.1411 23.3776 65.1411 25.7227V32.29H60.5619V29.6514C60.5619 28.2084 60.185 26.9344 59.2837 26.0243C58.3807 25.1124 57.1069 24.7227 55.6445 24.7227H46.8303C45.378 24.7227 44.1104 25.1138 43.2114 26.026C42.3149 26.9356 41.938 28.2084 41.938 29.6514V32.29H38.2879V29.6514C38.2879 28.2084 37.9112 26.9406 37.0338 26.0329C36.1511 25.1197 34.9087 24.7227 33.4961 24.7227H24.2048C22.7921 24.7227 21.5497 25.1197 20.667 26.0329C19.7896 26.9406 19.4129 28.2084 19.4129 29.6514Z" stroke="#199A8E" stroke-width="2"/>
</svg>
