<svg width="95" height="89" viewBox="0 0 95 89" fill="none" xmlns="http://www.w3.org/2000/svg">
<path d="M47.7983 44.8818L66.1674 27.6729L57.3109 19.3477C51.5854 13.9839 44.1006 13.8721 38.5839 19.0125C33.097 24.1249 33.1865 31.1929 38.9417 36.5847L47.7983 44.8818ZM51.7942 48.6533L60.6805 56.9784C66.4358 62.3423 73.8908 62.454 79.4373 57.3137C84.9242 52.2012 84.8348 45.1333 79.0795 39.7415L70.1931 31.4164L51.7942 48.6533ZM11.5371 55.2463H43.4147C42.1623 48.1225 35.5124 42.6469 27.4908 42.6469C19.4394 42.6469 12.7896 48.1225 11.5371 55.2463ZM11.5371 60.3308C12.7896 67.5105 19.4096 72.9861 27.4908 72.9861C35.5124 72.9861 42.1325 67.4826 43.4147 60.3308H11.5371Z" fill="#199A8E"/>
</svg>
