<svg width="60" height="55" viewBox="0 0 60 55" fill="none" xmlns="http://www.w3.org/2000/svg">
<path d="M0.110352 18.7494C0.110352 31.0805 10.7031 43.2671 27.1675 53.6633C28.0822 54.2409 29.2034 54.8185 29.9706 54.8185C30.7377 54.8185 31.859 54.2409 32.7736 53.6633C49.2676 43.2671 59.8308 31.0805 59.8308 18.7494C59.8308 8.0933 52.3067 0.700439 42.6582 0.700439C37.0225 0.700439 32.6261 3.21286 29.9706 7.0248C27.374 3.24173 22.9481 0.700439 17.3124 0.700439C7.63442 0.700439 0.110352 8.0933 0.110352 18.7494ZM6.18862 18.7205C6.18862 11.4432 11.0866 6.50499 17.6665 6.50499C22.9776 6.50499 25.9577 9.65273 27.8166 12.3962C28.6428 13.5802 29.2034 13.9556 29.9706 13.9556C30.7672 13.9556 31.2688 13.5513 32.1245 12.3962C34.1309 9.71048 36.993 6.50499 42.2746 6.50499C48.884 6.50499 53.782 11.4432 53.782 18.7205C53.782 28.8857 42.9828 40.1483 30.5312 48.2342C30.2656 48.4075 30.0886 48.523 29.9706 48.523C29.8525 48.523 29.6755 48.4075 29.4395 48.2342C16.9879 40.1483 6.18862 28.8857 6.18862 18.7205Z" fill="#199A8E"/>
</svg>
