<svg width="95" height="89" viewBox="0 0 95 89" fill="none" xmlns="http://www.w3.org/2000/svg">
<path d="M39.2656 19.7441L38.5839 19.0125L39.2656 19.7441C41.8506 17.3355 44.8555 16.1898 47.852 16.2409C50.8511 16.292 53.9224 17.5439 56.6262 20.0766C56.6265 20.0769 56.6268 20.0772 56.6272 20.0775L64.7061 27.6716L47.7983 43.5116L39.6254 35.8549C36.9056 33.3069 35.5969 30.436 35.5468 27.6757C35.4968 24.9207 36.6975 22.137 39.2656 19.7441ZM61.3628 56.2474C61.3627 56.2472 61.3625 56.247 61.3623 56.2469L53.2568 48.6533L70.1931 32.7867L78.3958 40.4713C81.1156 43.0193 82.4243 45.8902 82.4744 48.6505C82.5244 51.4052 81.3239 54.1888 78.7562 56.5815C76.1553 58.9913 73.1498 60.1363 70.1543 60.0853C67.1553 60.0341 64.0829 58.7822 61.3628 56.2474ZM42.167 54.2463H12.7848C14.4326 48.2124 20.3395 43.6469 27.4908 43.6469C34.6131 43.6469 40.5191 48.2115 42.167 54.2463ZM27.4908 71.9861C20.31 71.9861 14.4236 67.4179 12.7819 61.3308H42.1637C40.4947 67.4005 34.6078 71.9861 27.4908 71.9861Z" stroke="#199A8E" stroke-width="2"/>
</svg>
