<svg width="32" height="33" viewBox="0 0 32 33" fill="none" xmlns="http://www.w3.org/2000/svg">
<path d="M8 26.1841C10.2091 26.1841 12 24.3875 12 22.1712C12 19.9549 10.2091 18.1582 8 18.1582C5.79086 18.1582 4 19.9549 4 22.1712C4 24.3875 5.79086 26.1841 8 26.1841Z" stroke="#199A8E" stroke-width="2" stroke-linecap="round" stroke-linejoin="round"/>
<path d="M21.3334 28.8594C22.8062 28.8594 24.0001 27.6616 24.0001 26.1841C24.0001 24.7066 22.8062 23.5088 21.3334 23.5088C19.8607 23.5088 18.6667 24.7066 18.6667 26.1841C18.6667 27.6616 19.8607 28.8594 21.3334 28.8594Z" stroke="#199A8E" stroke-width="2" stroke-linecap="round" stroke-linejoin="round"/>
<path d="M19.3333 16.8207C22.647 16.8207 25.3333 14.1257 25.3333 10.8012C25.3333 7.47674 22.647 4.78174 19.3333 4.78174C16.0195 4.78174 13.3333 7.47674 13.3333 10.8012C13.3333 14.1257 16.0195 16.8207 19.3333 16.8207Z" stroke="#199A8E" stroke-width="2" stroke-linecap="round" stroke-linejoin="round"/>
</svg>
