<svg width="33" height="33" viewBox="0 0 33 33" fill="none" xmlns="http://www.w3.org/2000/svg">
<path d="M12.7601 29.5085H20.7601C27.4268 29.5085 30.0934 26.8332 30.0934 20.1449V12.119C30.0934 5.43069 27.4268 2.75537 20.7601 2.75537H12.7601C6.09342 2.75537 3.42676 5.43069 3.42676 12.119V20.1449C3.42676 26.8332 6.09342 29.5085 12.7601 29.5085Z" stroke="#199A8E" stroke-width="2" stroke-linecap="round" stroke-linejoin="round"/>
<path d="M3.42676 17.0683L11.4268 17.0415C12.4268 17.0415 13.5468 17.804 13.9201 18.7403L15.4401 22.5928C15.7868 23.4623 16.3334 23.4623 16.6801 22.5928L19.7334 14.821C20.0268 14.0719 20.5734 14.0452 20.9468 14.7541L22.3334 17.3893C22.7468 18.1785 23.8134 18.8206 24.6934 18.8206H30.1068" stroke="#199A8E" stroke-width="2" stroke-linecap="round" stroke-linejoin="round"/>
</svg>
