<svg width="34" height="35" viewBox="0 0 34 35" fill="none" xmlns="http://www.w3.org/2000/svg">
<g clip-path="url(#clip0_1099_3419)">
<path d="M8.55316 6.1792H7.18909C6.46554 6.1792 5.77162 6.47386 5.25999 6.99835C4.74837 7.52284 4.46094 8.23421 4.46094 8.97595V13.8703C4.46094 15.9101 5.25137 17.8663 6.65834 19.3087C8.06532 20.751 9.97358 21.5613 11.9633 21.5613C13.9531 21.5613 15.8614 20.751 17.2684 19.3087C18.6753 17.8663 19.4658 15.9101 19.4658 13.8703V8.97595C19.4658 8.23421 19.1783 7.52284 18.6667 6.99835C18.1551 6.47386 17.4612 6.1792 16.7376 6.1792H15.3735" stroke="#199A8E" stroke-width="2" stroke-linecap="round" stroke-linejoin="round"/>
<path d="M11.2813 21.5613C11.2812 22.6632 11.4929 23.7542 11.9043 24.7722C12.3156 25.7901 12.9184 26.715 13.6784 27.4942C14.4384 28.2733 15.3407 28.8913 16.3336 29.3129C17.3266 29.7346 18.3909 29.9516 19.4657 29.9516C20.5405 29.9516 21.6048 29.7346 22.5977 29.3129C23.5907 28.8913 24.493 28.2733 25.253 27.4942C26.013 26.715 26.6158 25.7901 27.0271 24.7722C27.4384 23.7542 27.6501 22.6632 27.6501 21.5613V17.3662" stroke="#199A8E" stroke-width="2" stroke-linecap="round" stroke-linejoin="round"/>
<path d="M15.3735 4.78076V7.57752" stroke="#199A8E" stroke-width="2" stroke-linecap="round" stroke-linejoin="round"/>
<path d="M8.55322 4.78076V7.57752" stroke="#199A8E" stroke-width="2" stroke-linecap="round" stroke-linejoin="round"/>
<path d="M27.65 17.366C29.1567 17.366 30.3782 16.1138 30.3782 14.5692C30.3782 13.0246 29.1567 11.7725 27.65 11.7725C26.1433 11.7725 24.9219 13.0246 24.9219 14.5692C24.9219 16.1138 26.1433 17.366 27.65 17.366Z" stroke="#199A8E" stroke-width="2" stroke-linecap="round" stroke-linejoin="round"/>
</g>
<defs>
<clipPath id="clip0_1099_3419">
<rect width="32.7378" height="33.561" fill="white" transform="translate(0.368652 0.585449)"/>
</clipPath>
</defs>
</svg>
