<svg width="34" height="35" viewBox="0 0 34 35" fill="none" xmlns="http://www.w3.org/2000/svg">
<g clip-path="url(#clip0_1099_3444)">
<path d="M15.1401 19.4433C14.9721 17.894 14.7986 16.2932 14.7986 14.7663C14.7986 11.981 14.7986 4.5835 9.83588 4.5835C4.27087 4.5835 0.721267 18.1994 0.721267 25.3104C0.713658 26.3597 0.758353 31.6866 2.46173 33.4473C2.89819 33.898 3.43177 34.1374 4.00577 34.1374C5.21041 34.1374 5.84879 33.6341 6.5242 33.1027C7.26073 32.521 8.27118 31.7267 10.866 30.9594C16.2171 29.3789 15.6453 24.1001 15.1401 19.4433ZM10.2636 28.8095C7.27051 29.6944 6.0222 30.6776 5.19622 31.3287C4.62228 31.7817 4.45968 31.8958 4.03844 31.9014C3.43069 31.4931 2.88291 28.3275 2.90471 25.3194C2.90471 17.1938 6.79147 6.8208 9.83696 6.8208C11.7334 6.8208 12.6173 9.34553 12.6173 14.7675C12.6173 16.4175 12.7973 18.082 12.9719 19.6905C13.5306 24.8384 13.6801 27.8005 10.2636 28.8095Z" fill="#199A8E"/>
<path d="M32.4577 25.3194H32.4577L32.4578 25.3277C32.4619 25.8284 32.4526 27.3675 32.2382 28.9826C32.131 29.7906 31.9757 30.5909 31.7565 31.2778C31.5315 31.9824 31.2678 32.475 30.9986 32.7532C30.7303 33.0301 30.4497 33.1375 30.1755 33.1375C29.3352 33.1375 28.931 32.8325 28.2734 32.3158C27.4628 31.6775 26.3407 30.8115 23.5957 29.9994L23.5954 29.9993C22.4149 29.6505 21.6194 29.1174 21.0697 28.4887C20.5157 27.8552 20.162 27.0678 19.9573 26.1388C19.537 24.2312 19.7767 21.9236 20.0342 19.5511L20.0342 19.551L20.0367 19.5276C20.2029 17.9955 20.3815 16.3487 20.3815 14.7652C20.3815 13.3545 20.3873 10.9456 20.964 8.90181C21.2512 7.88423 21.6574 7.04411 22.2005 6.47025C22.7152 5.92643 23.3853 5.5835 24.342 5.5835C25.2947 5.5835 26.3037 6.1655 27.3352 7.44861C28.3559 8.71839 29.2762 10.5312 30.0489 12.627C31.5939 16.8173 32.4577 21.8844 32.4577 25.3194ZM30.1307 32.9002L30.4435 32.9043L30.7029 32.7294C30.9725 32.5476 31.1408 32.2913 31.2422 32.1089C31.3545 31.907 31.4481 31.6777 31.5276 31.4441C31.6873 30.9751 31.8229 30.3916 31.9329 29.7546C32.1534 28.477 32.2886 26.8786 32.2763 25.3243C32.2757 21.1217 31.276 16.3779 29.8881 12.6741C29.1945 10.823 28.386 9.18277 27.5223 7.98488C27.0908 7.3864 26.6217 6.86478 26.1168 6.4846C25.6142 6.10609 25.0131 5.82185 24.343 5.82185C23.8622 5.82185 23.2174 5.91176 22.5977 6.40639C22.0031 6.88102 21.5498 7.63475 21.2157 8.70822L21.2155 8.70863C20.6211 10.6214 20.5638 13.1434 20.5638 14.7663C20.5638 16.3543 20.3906 17.9653 20.215 19.5825L20.215 19.5826C19.9408 22.1095 19.7347 24.3107 20.0943 26.0086C20.2811 26.8909 20.6293 27.6938 21.2363 28.3571C21.8436 29.0206 22.6476 29.4762 23.6331 29.7674C26.4406 30.598 27.583 31.4974 28.3438 32.0963L28.3654 32.1133L28.3662 32.1139L28.3867 32.13C28.6416 32.3303 28.8993 32.5328 29.1582 32.6677C29.4929 32.8421 29.8011 32.8958 30.1307 32.9002ZM30.1438 31.9003C29.7205 31.8947 29.5579 31.7783 28.9839 31.3275L30.1438 31.9003Z" fill="#199A8E" stroke="#199A8E" stroke-width="2"/>
<path d="M17.1733 12.9374L17.1737 12.9382C17.5437 13.9365 17.9987 14.5808 18.5256 14.9603C19.087 15.3646 19.599 15.3715 19.8059 15.3715C19.8236 15.3715 19.8423 15.3773 19.8618 15.3972C19.8818 15.4178 19.8971 15.4487 19.8971 15.49C19.8971 15.5314 19.8818 15.5624 19.8617 15.5829C19.8423 15.6029 19.8235 15.6087 19.8059 15.6087C19.2456 15.6087 18.5274 15.4332 17.8669 14.6209L17.091 13.6666L16.3151 14.6209C15.6546 15.4333 14.9364 15.6087 14.3773 15.6087C14.3606 15.6087 14.3417 15.6032 14.3217 15.5827C14.3013 15.5618 14.2861 15.5307 14.2861 15.49C14.2861 15.4494 14.3013 15.4184 14.3217 15.3975C14.3416 15.377 14.3605 15.3715 14.3773 15.3715C14.5842 15.3715 15.0958 15.3644 15.657 14.96C16.1836 14.5805 16.6388 13.9362 17.0094 12.9374L17.0099 12.9361C17.0285 12.8858 17.0675 12.8691 17.0921 12.8691C17.1139 12.8691 17.1536 12.8841 17.1733 12.9374ZM19.8059 14.3715C19.5495 14.3715 18.7715 14.3715 18.1113 12.5906L16.0719 12.5895C15.4106 14.3715 14.6327 14.3715 14.3773 14.3715C13.775 14.3715 13.2861 14.8726 13.2861 15.49C13.2861 16.1075 13.775 16.6087 14.3773 16.6087C14.9739 16.6087 15.6858 16.4597 16.3707 15.9499C16.3521 15.9277 16.3336 15.9053 16.3152 15.8826L17.0911 15.2518L17.867 15.8826C17.8485 15.9053 17.83 15.9277 17.8115 15.9498C18.4964 16.4596 19.2085 16.6087 19.8059 16.6087C20.4093 16.6087 20.8971 16.1076 20.8971 15.49C20.8971 14.8725 20.4093 14.3715 19.8059 14.3715Z" fill="#199A8E" stroke="#199A8E" stroke-width="2"/>
<path d="M16.999 1.71331C16.999 1.6727 17.0142 1.64167 17.0346 1.62077C17.0545 1.60029 17.0735 1.59473 17.0902 1.59473C17.107 1.59473 17.1259 1.60028 17.1458 1.62074C17.1662 1.64163 17.1814 1.67266 17.1814 1.71331V13.196C17.1814 13.2367 17.1662 13.2677 17.1458 13.2886C17.1259 13.3091 17.107 13.3146 17.0902 13.3146C17.0735 13.3146 17.0545 13.3091 17.0346 13.2886C17.0142 13.2677 16.999 13.2366 16.999 13.196V1.71331Z" fill="#199A8E" stroke="#199A8E" stroke-width="2"/>
</g>
<defs>
<clipPath id="clip0_1099_3444">
<rect width="32.7378" height="33.561" fill="white" transform="translate(0.720703 0.585449)"/>
</clipPath>
</defs>
</svg>
