<svg width="114" height="98" viewBox="0 0 114 98" fill="none" xmlns="http://www.w3.org/2000/svg">
<path d="M8.84961 38.3167C8.84961 58.5557 26.0909 78.5578 52.8894 95.6211C54.3782 96.569 56.2032 97.517 57.4519 97.517C58.7005 97.517 60.5255 96.569 62.0143 95.6211C88.8608 78.5578 106.054 58.5557 106.054 38.3167C106.054 20.8268 93.8075 8.69287 78.103 8.69287C68.9301 8.69287 61.7742 12.8165 57.4519 19.0731C53.2256 12.8639 46.0217 8.69287 36.8487 8.69287C21.0962 8.69287 8.84961 20.8268 8.84961 38.3167ZM18.743 38.2693C18.743 26.325 26.7153 18.2199 37.4251 18.2199C46.0697 18.2199 50.9203 23.3863 53.946 27.8891C55.2907 29.8324 56.2032 30.4486 57.4519 30.4486C58.7486 30.4486 59.565 29.7851 60.9578 27.8891C64.2235 23.4811 68.8821 18.2199 77.4787 18.2199C88.2365 18.2199 96.2088 26.325 96.2088 38.2693C96.2088 54.9535 78.6313 73.4388 58.3644 86.7102C57.9321 86.9946 57.644 87.1842 57.4519 87.1842C57.2598 87.1842 56.9716 86.9946 56.5874 86.7102C36.3205 73.4388 18.743 54.9535 18.743 38.2693Z" fill="white"/>
<rect x="7" y="45" width="20" height="11" fill="#147B72"/>
<rect x="88" y="47" width="22" height="10" fill="#147B72"/>
<path d="M33.0205 21.0801L38.1225 1.74178L47.4502 4.20268L42.3482 23.541L33.0205 21.0801Z" fill="#147B72"/>
<rect x="46.5342" y="35.293" width="31.2581" height="10.0003" transform="rotate(-100.197 46.5342 35.293)" fill="#147B72"/>
<path d="M4.50058 53.0056L30.5002 53.0052C33.2057 53.0052 33.9167 52.4802 34.5002 50.1495L44 7.5L55.5 74.0054C56.2427 78.4077 61.5 79.5054 63.5 76.0054L75.5 36.0056L80.2127 50.1495C80.7962 52.8427 82.3877 54.1376 85.1992 54.1376H109.5C111.94 54.1376 113.5 53.8881 113.5 51.5056C113.5 49.0713 109 49.5 109.5 49.5H85.1992L79 31.5056C78 28.0056 72.5079 28.155 71.5 32.5056L60 72.0056L47.5 4.50543C46.8104 0.206632 41.4549 -0.345068 40.5 4.00552L29.5 48.5H4.5C2.00673 48.5 0 48.1231 0 50.5056C0 52.8881 2.00732 53.0056 4.50058 53.0056Z" fill="#1C1C1E"/>
<path d="M4.50058 53.0057L30.5002 53.0054C33.2057 53.0054 33.9167 52.4803 34.5002 50.1497L44 7.50015L55.5 74.0055C56.2427 78.4079 61.5 79.5055 63.5 76.0055L75.5 36.0057L80.2127 50.1497C80.7962 52.8429 82.3877 54.1377 85.1992 54.1377H109.5C111.94 54.1377 113.5 53.8882 113.5 51.5057C113.5 49.0715 109.493 49.5001 107 49.5001H97H85.1992L79 31.5058C78 28.0058 72.5079 28.1552 71.5 32.5058L60 72.0057L47.5 4.50557C46.8104 0.206779 41.4549 -0.344922 40.5 4.00566L29.3519 48.5001H4.50058C2.00732 48.5001 0 48.6177 0 51.0001C0 53.3826 2.00732 53.0057 4.50058 53.0057Z" fill="white"/>
<path d="M4.50058 53.0001L30.5002 52.9997C33.2057 52.9997 33.9167 52.4747 34.5002 50.144L44 7.49448L55.5 73.9999C56.2427 78.4022 61.5 79.4999 63.5 75.9999L75.5 36.0001L80.2127 50.144C80.7962 52.8372 82.3877 54.132 85.1992 54.132H109.5C111.94 54.132 113.5 53.8825 113.5 51.5001C113.5 49.0658 109.493 49.4945 107 49.4945H97H85.1992L79 31.5001C78 28.0001 72.5079 28.1495 71.5 32.5001L60 72.0001L47.5 4.49991C46.8104 0.201115 41.4549 -0.350586 40.5 4L29.3519 48.4945H4.50058C2.00732 48.4945 0.00973862 48.3397 0.00973862 50.7222C0.00973862 53.1047 2.00732 53.0001 4.50058 53.0001Z" fill="white"/>
</svg>
