<svg width="33" height="35" viewBox="0 0 33 35" fill="none" xmlns="http://www.w3.org/2000/svg">
<g clip-path="url(#clip0_1099_3436)">
<path d="M30.826 6.72205C29.954 3.93721 28.0951 1.89339 25.7259 1.11454C21.358 -0.321373 17.7662 1.52488 16.395 2.40874C15.0236 1.52481 11.4318 -0.321373 7.06409 1.11454C4.69418 1.89359 2.8351 3.93819 1.96339 6.72409C0.817121 10.3875 1.55737 14.5375 3.94377 17.8251C4.98128 19.2547 5.68277 20.8306 6.0287 22.5093C6.18235 23.2551 6.31592 24.0756 6.42564 24.9482C6.75513 27.5686 7.24038 29.6718 7.86802 31.1993C8.61984 33.0291 9.58976 34.0173 10.7508 34.1363C10.8169 34.1431 10.8822 34.1464 10.9471 34.1464C12.0899 34.1463 13.0449 33.0949 13.7879 31.0168C14.3373 29.4806 14.7703 27.422 15.0073 25.2202C15.1398 23.9891 15.4497 22.9922 15.9034 22.3374C16.0659 22.103 16.3014 22.0777 16.3951 22.0777C16.4887 22.0777 16.7242 22.103 16.8867 22.3374C17.3404 22.9922 17.6504 23.9891 17.7828 25.2203C18.0199 27.422 18.4529 29.4806 19.0022 31.0169C19.7452 33.0951 20.7001 34.1465 21.843 34.1465C21.9079 34.1465 21.9733 34.1431 22.0393 34.1364C23.2004 34.0173 24.1703 33.0292 24.9221 31.1994C25.5497 29.6719 26.035 27.5687 26.3645 24.9483C26.4742 24.0755 26.6078 23.2551 26.7614 22.5097C27.107 20.8324 27.8096 19.2549 28.8494 17.821C31.2337 14.5333 31.9726 10.3841 30.826 6.72205ZM27.3139 16.6507C26.1081 18.3133 25.2924 20.1482 24.8892 22.1043C24.7251 22.9006 24.583 23.7731 24.4667 24.6975C23.796 30.0314 22.5463 32.0904 21.8609 32.1831C21.717 32.1308 21.2247 31.6457 20.6954 30.0404C20.2467 28.6802 19.8879 26.8919 19.6848 25.0051C19.5142 23.4206 19.0977 22.1409 18.4466 21.2014C17.9757 20.5218 17.2087 20.1161 16.395 20.1161C15.5813 20.1161 14.8143 20.5217 14.3433 21.2015C13.6923 22.141 13.2758 23.4207 13.1052 25.0052C12.902 26.892 12.5432 28.6802 12.0946 30.0405C11.5653 31.6457 11.0729 32.1309 10.929 32.1832C10.2437 32.0905 8.99389 30.0315 8.32322 24.6976C8.20697 23.7734 8.06483 22.9007 7.90063 22.104C7.49723 20.1463 6.68236 18.3128 5.47874 16.6544C3.46031 13.8734 2.82736 10.3852 3.78539 7.32334C4.46604 5.14796 5.87402 3.56581 7.64832 2.98255C9.52141 2.36672 11.4529 2.40618 13.389 3.09969C14.8678 3.62946 15.7958 4.36223 15.8027 4.36773L16.3936 4.84133L16.9849 4.36957C16.9941 4.36223 17.9221 3.62946 19.4009 3.09969C21.3371 2.40612 23.2685 2.36672 25.1416 2.98255H25.1417C26.9154 3.56561 28.3233 5.14718 29.0041 7.32163C29.9624 10.3823 29.3306 13.8698 27.3139 16.6507Z" fill="#199A8E"/>
</g>
<defs>
<clipPath id="clip0_1099_3436">
<rect width="32.7378" height="33.561" fill="white" transform="translate(0.0258789 0.585449)"/>
</clipPath>
</defs>
</svg>
